<?xml version="1.0" encoding="UTF-8" standalone="no"?>
<svg
   xmlns:dc="http://purl.org/dc/elements/1.1/"
   xmlns:cc="http://creativecommons.org/ns#"
   xmlns:rdf="http://www.w3.org/1999/02/22-rdf-syntax-ns#"
   xmlns:svg="http://www.w3.org/2000/svg"
   xmlns="http://www.w3.org/2000/svg"
   xmlns:sodipodi="http://sodipodi.sourceforge.net/DTD/sodipodi-0.dtd"
   xmlns:inkscape="http://www.inkscape.org/namespaces/inkscape"
   viewBox="0 0 593.55664 201.26805"
   height="201.26805"
   width="593.55664"
   xml:space="preserve"
   id="svg2"
   version="1.1"
   sodipodi:docname="system_verilog.svg"
   inkscape:version="0.92.5 (2060ec1f9f, 2020-04-08)"><sodipodi:namedview
     pagecolor="#ffffff"
     bordercolor="#666666"
     borderopacity="1"
     objecttolerance="10"
     gridtolerance="10"
     guidetolerance="10"
     inkscape:pageopacity="0"
     inkscape:pageshadow="2"
     inkscape:window-width="2556"
     inkscape:window-height="1392"
     id="namedview69"
     showgrid="false"
     fit-margin-top="0"
     fit-margin-left="0"
     fit-margin-right="0"
     fit-margin-bottom="0"
     inkscape:zoom="1.622997"
     inkscape:cx="367.57163"
     inkscape:cy="208.35857"
     inkscape:window-x="2"
     inkscape:window-y="46"
     inkscape:window-maximized="1"
     inkscape:current-layer="g10" /><metadata
     id="metadata8"><rdf:RDF><cc:Work
         rdf:about=""><dc:format>image/svg+xml</dc:format><dc:type
           rdf:resource="http://purl.org/dc/dcmitype/StillImage" /><dc:title></dc:title></cc:Work></rdf:RDF></metadata><defs
     id="defs6"><clipPath
       id="clipPath20"
       clipPathUnits="userSpaceOnUse"><path
         id="path18"
         d="m 3540.62,3804.31 h 251.79 c -146.23,410.4 -1617.34,494.28 -2063.52,79.34 555.87,362.25 1702.21,190.18 1811.73,-79.34"
         inkscape:connector-curvature="0" /></clipPath><linearGradient
       id="linearGradient28"
       spreadMethod="pad"
       gradientTransform="matrix(2063.53,0,0,-534.278,1728.89,4318.58)"
       gradientUnits="userSpaceOnUse"
       y2="0"
       x2="1"
       y1="0"
       x1="0"><stop
         id="stop24"
         offset="0"
         style="stop-opacity:1;stop-color:#f0f1cc" /><stop
         id="stop26"
         offset="1"
         style="stop-opacity:1;stop-color:#2f56a6" /></linearGradient><clipPath
       id="clipPath38"
       clipPathUnits="userSpaceOnUse"><path
         id="path36"
         d="M 1419.29,3618.57 H 1167.48 C 1313.72,3208.17 2784.83,3124.3 3231,3539.24 2675.14,3176.97 1528.78,3349.03 1419.29,3618.57"
         inkscape:connector-curvature="0" /></clipPath><linearGradient
       id="linearGradient46"
       spreadMethod="pad"
       gradientTransform="matrix(2063.53,0,0,-534.268,1167.48,3638.57)"
       gradientUnits="userSpaceOnUse"
       y2="0"
       x2="1"
       y1="0"
       x1="0"><stop
         id="stop42"
         offset="0"
         style="stop-opacity:1;stop-color:#f0f1cc" /><stop
         id="stop44"
         offset="1"
         style="stop-opacity:1;stop-color:#2f56a6" /></linearGradient><clipPath
       id="clipPath82"
       clipPathUnits="userSpaceOnUse"><path
         id="path80"
         d="m 4287.38,1173.5 h 427.01 c -248,696.01 -2742.87,838.25 -3499.56,134.56 942.71,614.34 2886.81,322.54 3072.55,-134.56"
         inkscape:connector-curvature="0" /></clipPath><linearGradient
       id="linearGradient90"
       spreadMethod="pad"
       gradientTransform="matrix(3499.57,0,0,-878.257,1214.83,2031.75)"
       gradientUnits="userSpaceOnUse"
       y2="0"
       x2="1"
       y1="0"
       x1="0"><stop
         id="stop86"
         offset="0"
         style="stop-opacity:1;stop-color:#f0f1cc" /><stop
         id="stop88"
         offset="1"
         style="stop-opacity:1;stop-color:#2f56a6" /></linearGradient><clipPath
       id="clipPath100"
       clipPathUnits="userSpaceOnUse"><path
         id="path98"
         d="M 689.777,858.508 H 262.715 C 510.738,162.5 3005.62,20.2695 3762.29,723.98 2819.6,109.602 875.461,401.41 689.777,858.508"
         inkscape:connector-curvature="0" /></clipPath><linearGradient
       id="linearGradient108"
       spreadMethod="pad"
       gradientTransform="matrix(3499.58,0,0,-878.233,262.715,878.51)"
       gradientUnits="userSpaceOnUse"
       y2="0"
       x2="1"
       y1="0"
       x1="0"><stop
         id="stop104"
         offset="0"
         style="stop-opacity:1;stop-color:#f0f1cc" /><stop
         id="stop106"
         offset="1"
         style="stop-opacity:1;stop-color:#2f56a6" /></linearGradient></defs><g
     transform="matrix(1.3333333,0,0,-1.3333333,-35.028666,236.10193)"
     id="g10"><g
       id="g76"
       transform="scale(0.1)"><g
         id="g78"
         clip-path="url(#clipPath82)"><path
           inkscape:connector-curvature="0"
           d="m 4287.38,1173.5 h 427.01 c -248,696.01 -2742.87,838.25 -3499.56,134.56 942.71,614.34 2886.81,322.54 3072.55,-134.56"
           style="fill:#f0f1cc;fill-opacity:1;fill-rule:nonzero;stroke:none"
           id="path84" /><path
           inkscape:connector-curvature="0"
           d="m 4287.38,1173.5 h 427.01 c -248,696.01 -2742.87,838.25 -3499.56,134.56 942.71,614.34 2886.81,322.54 3072.55,-134.56"
           style="fill:url(#linearGradient90);fill-opacity:1;fill-rule:nonzero;stroke:none"
           id="path92" /></g></g><g
       id="g94"
       transform="scale(0.1)"><g
         id="g96"
         clip-path="url(#clipPath100)"><path
           inkscape:connector-curvature="0"
           d="M 689.777,858.508 H 262.715 C 510.738,162.5 3005.62,20.2695 3762.29,723.98 2819.6,109.602 875.461,401.41 689.777,858.508"
           style="fill:#f0f1cc;fill-opacity:1;fill-rule:nonzero;stroke:none"
           id="path102" /><path
           inkscape:connector-curvature="0"
           d="M 689.777,858.508 H 262.715 C 510.738,162.5 3005.62,20.2695 3762.29,723.98 2819.6,109.602 875.461,401.41 689.777,858.508"
           style="fill:url(#linearGradient108);fill-opacity:1;fill-rule:nonzero;stroke:none"
           id="path110" /></g></g><path
       inkscape:connector-curvature="0"
       d="m 104.029,128.436 c 0.181,-1.511 0.273,-2.375 0.273,-2.6 l -0.137,-3.048 c -0.045,-1.3 -0.102,-2.135 -0.172,-2.497 -0.212,-0.093 -0.389,-0.14 -0.529,-0.14 l -0.317,0.07 c -0.732,3.193 -1.974,5.518 -3.7232,6.979 -1.7496,1.459 -3.8828,2.19 -6.3984,2.19 -2.6078,0 -4.7465,-0.731 -6.416,-2.188 -1.6696,-1.459 -2.5043,-3.158 -2.5043,-5.092 0,-1.481 0.5824,-2.836 1.7504,-4.068 1.1656,-1.232 4.1504,-3.088 8.955,-5.568 3.6586,-1.907 6.2725,-3.458 7.8385,-4.651 1.564,-1.192 2.745,-2.572 3.539,-4.143 0.792,-1.568 1.191,-3.317 1.191,-5.2499 0,-2.4301 -0.632,-4.7172 -1.897,-6.8531 -1.264,-2.1372 -2.966,-3.7442 -5.108,-4.8239 -2.14,-1.0793 -4.9763,-1.6191 -8.5056,-1.6191 -3.0743,0 -6.025,0.4851 -8.8489,1.457 -1.6625,0.586 -2.6761,1.061 -3.0398,1.425 -0.3652,0.3598 -0.5477,0.75 -0.5477,1.157 0,0.2532 0.0243,0.5688 0.0739,0.959 0.339,2.6891 0.5195,4.9039 0.5441,6.6348 0.0438,1.073 0.1234,1.6992 0.2375,1.8812 0.0914,0.159 0.2609,0.2391 0.5113,0.2391 0.2043,0 0.3692,-0.073 0.4953,-0.223 0.1231,-0.1481 0.2094,-0.427 0.2539,-0.8379 0.2508,-2.8051 1.5489,-5.3121 3.8965,-7.5231 2.3231,-2.2133 4.9539,-3.3179 7.8938,-3.3179 1.7984,0 3.457,0.3738 4.9726,1.1289 1.5149,0.7519 2.7001,1.8418 3.5541,3.2679 0.854,1.427 1.282,2.8149 1.282,4.1621 0,1.8489 -0.652,3.5379 -1.956,5.0679 -1.3043,1.531 -3.9222,3.313 -7.857,5.355 -3.934,2.038 -6.4922,3.525 -7.6727,4.456 -1.9074,1.527 -3.3375,3.147 -4.2906,4.856 -0.7055,1.322 -1.0566,2.859 -1.0566,4.615 0,3.164 1.2562,5.849 3.7691,8.047 2.5121,2.198 5.8832,3.3 10.1106,3.3 2.3292,0 4.3386,-0.264 6.0302,-0.788 1.235,-0.411 2.502,-1.087 3.805,-2.017"
       style="fill:#413290;fill-opacity:1;fill-rule:nonzero;stroke:none;stroke-width:0.1"
       id="path112" /><path
       inkscape:connector-curvature="0"
       d="m 106.566,113.157 c 0.501,0.05 0.925,0.078 1.268,0.078 h 1.643 l 2.225,0.077 2.91,-0.103 2.363,0.069 c 1.255,0 2.384,-0.079 3.389,-0.236 0.091,-0.227 0.137,-0.403 0.137,-0.539 l -0.035,-0.267 c -0.48,-0.224 -1.221,-0.385 -2.224,-0.474 -1.416,-0.116 -2.431,-0.373 -3.048,-0.766 l -0.068,-0.381 c 0,-0.228 0.091,-0.571 0.273,-1.028 0.113,-0.276 0.262,-0.689 0.445,-1.234 0.5,-1.693 1.58,-4.965 3.243,-9.8081 1.207,-3.498 2.323,-6.507 3.348,-9.0199 0.634,1.3828 1.359,3.1359 2.175,5.257 l 2.875,8.111 c 0.669,1.773 1.176,3.555 1.518,5.341 0.136,0.709 0.205,1.27 0.205,1.682 0,0.343 -0.149,0.666 -0.445,0.963 -0.296,0.298 -0.889,0.548 -1.778,0.755 -1.616,0.411 -2.494,0.669 -2.631,0.77 -0.137,0.103 -0.217,0.327 -0.239,0.667 0.136,0.115 0.296,0.204 0.478,0.274 h 2.118 l 2.292,-0.033 3.417,0.033 2.185,-0.033 0.548,0.033 c 0.16,0 0.421,-0.025 0.786,-0.073 0.228,-0.122 0.342,-0.322 0.342,-0.593 0,-0.248 -0.104,-0.47 -0.307,-0.667 l -0.683,-0.111 c -1.323,-0.182 -2.336,-0.515 -3.042,-1.005 -0.389,-0.267 -0.719,-0.824 -0.991,-1.672 -0.091,-0.315 -0.24,-0.717 -0.444,-1.207 -0.114,-0.274 -0.28,-0.727 -0.497,-1.366 -0.218,-0.64 -0.498,-1.388 -0.84,-2.254 l -0.413,-0.959 -0.032,-0.171 -5.83,-15.3061 -4.252,-11.516 c -0.274,-0.5699 -0.594,-1.2781 -0.957,-2.1258 -0.867,-1.6242 -1.379,-2.516 -1.539,-2.6761 -0.683,-0.845 -1.277,-1.4399 -1.779,-1.7828 l -1.742,-0.7543 c -0.343,-0.093 -0.708,-0.1379 -1.095,-0.1379 -1.026,0 -1.778,0.2199 -2.256,0.6672 -0.48,0.4449 -0.718,1.0578 -0.718,1.8347 0,0.7321 0.352,1.393 1.06,1.9891 0.228,0.066 0.455,0.159 0.683,0.2719 l 0.445,0.1019 c 2.03,-0.3637 3.295,-0.5449 3.797,-0.5449 0.48,0.2512 0.832,0.5492 1.061,0.8941 1.117,1.6688 2.077,3.525 2.882,5.5688 0.804,2.0441 1.206,3.4441 1.206,4.1871 0,0.7781 -0.305,1.9012 -0.911,3.3789 l -3.781,10.0262 c -0.521,1.2988 -2.076,5.528 -4.665,12.689 -0.16,0.424 -0.366,0.739 -0.616,0.948 l -2.329,0.795 -0.718,0.126 c -0.388,0.177 -0.583,0.43 -0.583,0.761 l 0.171,0.495"
       style="fill:#413290;fill-opacity:1;fill-rule:nonzero;stroke:none;stroke-width:0.1"
       id="path114" /><path
       inkscape:connector-curvature="0"
       d="m 138.748,94.9199 c 0.843,-2.2078 1.482,-3.634 1.915,-4.284 0.866,-1.325 1.904,-2.3488 3.113,-3.0828 1.208,-0.734 2.519,-1.0961 3.932,-1.0961 1.299,0 2.587,0.568 3.866,1.702 0.911,0.8539 1.367,1.85 1.367,2.9871 0,1.5039 -0.534,2.891 -1.602,4.1648 -1.068,1.2512 -3.097,2.4411 -6.087,3.57 -2.99,1.1301 -4.998,2.3341 -6.023,3.6121 -1.026,1.28 -1.539,2.739 -1.539,4.383 0,1.55 0.42,2.921 1.262,4.108 0.84,1.188 2,2.083 3.478,2.685 1.477,0.606 2.841,0.909 4.091,0.909 1.615,0 3.064,-0.127 4.347,-0.385 1.284,-0.253 2.393,-0.65 3.326,-1.184 0.181,-1.158 0.328,-2.858 0.441,-5.1 l 0.07,-1.088 c -0.298,-0.021 -0.55,-0.033 -0.755,-0.033 h -0.48 c -0.679,1.88 -1.719,3.367 -3.114,4.468 -1.397,1.097 -2.776,1.648 -4.137,1.648 -1.362,0 -2.462,-0.418 -3.303,-1.246 -0.84,-0.831 -1.258,-1.917 -1.258,-3.261 0,-1.025 0.339,-1.935 1.023,-2.727 0.68,-0.8 2.277,-1.702 4.789,-2.715 2.511,-1.012 4.338,-1.959 5.479,-2.84 1.142,-0.8798 1.985,-1.9509 2.529,-3.2099 0.542,-1.2582 0.814,-2.459 0.814,-3.6031 0,-1.577 -0.519,-3.054 -1.554,-4.4262 -1.036,-1.3719 -2.333,-2.3418 -3.89,-2.9008 -1.56,-0.5602 -2.952,-0.841 -4.18,-0.841 -2.891,0 -5.554,0.4828 -7.987,1.4441 -0.229,0.1867 -0.355,0.5328 -0.376,1.0457 0,0.209 -0.024,0.5492 -0.069,1.0141 -0.364,3.1402 -0.546,5.0039 -0.546,5.5812 0,0.2817 0.057,0.468 0.171,0.5598 0.113,0.093 0.409,0.141 0.887,0.141"
       style="fill:#413290;fill-opacity:1;fill-rule:nonzero;stroke:none;stroke-width:0.1"
       id="path116" /><path
       inkscape:connector-curvature="0"
       d="m 164.938,120.046 1.077,-0.033 0.137,-3.258 -0.068,-4.219 c 0.434,-0.022 0.708,-0.034 0.824,-0.034 0.593,0 1.725,0.046 3.395,0.137 1.074,0.07 2.103,0.106 3.087,0.106 0.457,0 1.143,-0.014 2.058,-0.036 0.045,-0.451 0.068,-0.811 0.068,-1.078 0,-0.292 -0.068,-0.752 -0.204,-1.38 h -0.583 l -5.309,-0.169 -2.637,-0.068 -0.616,-0.07 c -0.184,-0.569 -0.275,-1.233 -0.275,-1.982 l 0.104,-5.136 -0.069,-9.0362 c 0,-2.375 0.308,-3.95 0.926,-4.7238 0.593,-0.7992 1.484,-1.2 2.674,-1.2 0.594,0 1.714,0.182 3.36,0.5469 0.501,0.1152 1.177,0.4902 2.022,1.1289 h 0.309 c 0.205,0 0.37,-0.0617 0.497,-0.1859 0.125,-0.125 0.189,-0.2868 0.189,-0.493 l -0.035,-0.2348 c -0.978,-1.0633 -2.099,-1.8422 -3.36,-2.325 -1.262,-0.4863 -2.94,-0.7293 -5.032,-0.7293 -1.48,0 -2.702,0.343 -3.669,1.027 -0.967,0.682 -1.587,1.4922 -1.859,2.4273 -0.273,0.9348 -0.409,2.977 -0.409,6.1227 l 0.136,7.6972 -0.034,3.695 v 1.369 c 0,0.64 -0.024,1.276 -0.068,1.915 l -0.58,0.03 -2.792,-0.093 -0.273,-0.033 c -0.251,0 -0.438,0.054 -0.562,0.168 -0.125,0.112 -0.187,0.246 -0.187,0.405 0,0.268 0.084,0.49 0.252,0.659 0.168,0.166 0.68,0.435 1.536,0.795 0.584,0.249 1.262,0.723 2.04,1.416 0.775,0.694 1.433,1.459 1.973,2.304 0.27,0.451 0.652,1.315 1.146,2.589 0.36,0.932 0.63,1.591 0.811,1.979"
       style="fill:#413290;fill-opacity:1;fill-rule:nonzero;stroke:none;stroke-width:0.1"
       id="path118" /><path
       inkscape:connector-curvature="0"
       d="m 202.544,104.352 -13.524,-0.186 -2.6,0.053 c -1.054,0 -2.133,-0.043 -3.232,-0.131 -0.204,-0.684 -0.304,-1.15 -0.304,-1.399 l 0.034,-0.341 v -0.343 l -0.034,-1.675 c 0,-1.387 0.434,-3.0902 1.308,-5.103 0.873,-2.0149 2.12,-3.5508 3.741,-4.6122 1.622,-1.0589 3.645,-1.625 6.073,-1.6898 1.292,0.0648 2.323,0.2199 3.094,0.4691 0.771,0.2411 1.859,0.809 3.265,1.702 l 2.449,1.973 0.204,-1.3371 c 0,-0.1558 -0.011,-0.3218 -0.033,-0.5 -1.022,-1.2902 -2.317,-2.4199 -3.881,-3.3922 -1.569,-0.9738 -3.156,-1.6828 -4.767,-2.1367 -0.774,-0.2023 -2.045,-0.3043 -3.816,-0.3043 -1.611,0 -3.2,0.3313 -4.766,0.9922 -2.315,1.002 -4.136,2.616 -5.464,4.8379 -1.328,2.225 -1.992,4.9199 -1.992,8.091 0,1.0021 0.186,2.2891 0.559,3.8641 0.374,1.572 1.047,3.248 2.021,5.028 0.656,1.209 1.461,2.201 2.412,2.977 1.358,1.092 2.545,1.858 3.565,2.292 1.471,0.612 3.179,0.92 5.127,0.92 2.106,0 3.826,-0.387 5.161,-1.163 1.811,-1.023 3.163,-2.344 4.059,-3.963 0.891,-1.618 1.341,-3.098 1.341,-4.443 z m -18.916,1.146 h 1.592 c 1.151,0 4.582,0.177 10.294,0.529 0.903,0.047 1.456,0.138 1.661,0.279 0.405,0.44 0.608,0.835 0.608,1.182 0,0.721 -0.226,1.537 -0.677,2.456 -0.452,0.916 -1.146,1.623 -2.084,2.123 -0.936,0.498 -2.026,0.748 -3.266,0.748 -2.62,0 -4.719,-1.003 -6.299,-3.016 -1.219,-1.525 -1.829,-2.961 -1.829,-4.301"
       style="fill:#413290;fill-opacity:1;fill-rule:nonzero;stroke:none;stroke-width:0.1"
       id="path120" /><path
       inkscape:connector-curvature="0"
       d="m 204.795,87.4039 c 0.363,0.2481 0.862,0.4191 1.498,0.5121 0.909,0.1121 1.615,0.2981 2.117,0.55 0.407,0.3449 0.679,0.8352 0.818,1.4758 0.159,0.823 0.239,3.7172 0.239,8.6863 0,4.8719 -0.148,8.0229 -0.446,9.4409 -0.501,0.321 -1.151,0.571 -1.948,0.754 -0.251,0.047 -0.777,0.172 -1.573,0.378 v 1.103 c 1.372,0.388 2.482,0.891 3.331,1.509 0.848,0.618 2.03,1.851 3.543,3.702 h 0.209 c 0.137,0 0.358,0.012 0.661,0.033 0.184,-0.021 0.336,-0.082 0.454,-0.169 l -0.035,-3.912 c 0,-0.805 0.022,-1.66 0.068,-2.574 2.422,2.198 4.593,3.741 6.516,4.624 1.312,0.59 2.794,0.884 4.447,0.884 1.967,0 3.528,-0.374 4.682,-1.123 1.155,-0.747 2.251,-2.092 3.293,-4.043 2.041,2.016 3.893,3.427 5.554,4.229 1.661,0.802 3.341,1.202 5.039,1.202 2.567,0 4.677,-0.831 6.328,-2.494 1.628,-1.687 2.463,-4.16 2.509,-7.416 v -2.839 l 0.036,-3.1061 -0.036,-8.0007 c -0.021,-0.9352 0.186,-1.6422 0.619,-2.1184 0.183,-0.0707 0.883,-0.2738 2.101,-0.6156 0.755,-0.2071 1.204,-0.3653 1.341,-0.4782 0.137,-0.1152 0.207,-0.2769 0.207,-0.489 0,-0.259 -0.07,-0.5641 -0.207,-0.9172 h -0.24 l -3.457,0.1902 c -0.414,0.0219 -1.063,0.0371 -1.954,0.0371 -1.096,0 -2.625,-0.048 -4.589,-0.1402 h -1.747 c -0.25,0 -0.74,-0.009 -1.471,-0.0328 -0.021,0.2109 -0.032,0.398 -0.032,0.5641 0,0.1867 0.077,0.4238 0.237,0.7046 0.613,0.2723 1.454,0.4942 2.523,0.6633 1.067,0.1719 1.731,0.4758 1.992,0.9207 0.262,0.443 0.394,2.2063 0.394,5.2981 0,6.6941 -0.082,10.5781 -0.243,11.6471 -0.275,1.703 -1.005,3.036 -2.188,4 -1.181,0.966 -2.669,1.449 -4.459,1.449 -1.378,0 -2.722,-0.352 -4.031,-1.063 -1.309,-0.705 -2.595,-1.769 -3.857,-3.185 l -0.033,-0.823 v -5.248 l -0.137,-4.0779 c 0,-4.1602 0.04,-6.5301 0.121,-7.0973 0.079,-0.5718 0.272,-0.9918 0.581,-1.2527 0.306,-0.2609 1.201,-0.4992 2.686,-0.7031 0.661,-0.0942 1.174,-0.184 1.54,-0.2762 0.273,-0.2297 0.411,-0.5297 0.411,-0.8977 0,-0.3023 -0.103,-0.5101 -0.306,-0.623 h -0.582 l -1.699,0.0328 h -9.907 l -2.725,-0.0328 c -0.044,0.332 -0.066,0.5769 -0.066,0.7348 l 0.034,0.398 c 0.501,0.2691 1.44,0.527 2.812,0.7801 0.708,0.1121 1.44,0.309 2.196,0.5851 0.137,0.1129 0.239,0.2618 0.308,0.4457 0.116,0.3192 0.196,1.2372 0.24,2.7493 l 0.173,3.9898 -0.069,4.5011 0.033,2.51 c 0,2.818 -0.57,4.877 -1.711,6.17 -1.142,1.295 -2.581,1.943 -4.316,1.943 -1.62,0 -3.248,-0.402 -4.879,-1.202 -1.634,-0.799 -2.986,-1.872 -4.061,-3.224 -0.022,-0.633 -0.033,-1.212 -0.033,-1.728 l 0.138,-11.39 c 0.022,-2.4871 0.168,-3.907 0.435,-4.257 0.27,-0.3489 0.871,-0.5911 1.807,-0.729 1.493,-0.2031 2.463,-0.4519 2.907,-0.7449 0.209,-0.1543 0.316,-0.3781 0.316,-0.6851 0,-0.2039 -0.013,-0.445 -0.035,-0.7239 -2.637,0.1758 -4.403,0.2629 -5.303,0.2629 -0.926,0 -1.758,-0.0109 -2.496,-0.0312 l -1.736,-0.1059 h -1.075 l -3.881,-0.1371 c -0.047,0.1602 -0.069,0.291 -0.069,0.3902 0,0.1 0.044,0.3211 0.138,0.6559"
       style="fill:#413290;fill-opacity:1;fill-rule:nonzero;stroke:none;stroke-width:0.1"
       id="path122" /><path
       inkscape:connector-curvature="0"
       d="m 242.793,129.623 0.24,0.581 c 1.852,0 3.7,-0.024 5.551,-0.07 h 1.132 c 0.343,0 0.72,0.011 1.133,0.034 1.485,0.069 4.168,0.103 8.052,0.103 0.777,0 1.532,-0.005 2.263,-0.02 0.731,-0.014 1.44,-0.03 2.126,-0.057 0.135,-0.077 0.24,-0.191 0.308,-0.342 l -0.068,-0.612 c -0.137,-0.253 -0.481,-0.381 -1.029,-0.381 h -0.274 c -0.64,0.024 -1.691,-0.029 -3.155,-0.153 -1.463,-0.125 -2.422,-0.358 -2.875,-0.697 -0.299,-0.25 -0.445,-0.58 -0.445,-0.989 0,-0.884 0.375,-2.211 1.126,-3.983 l 5.178,-12.024 1.804,-3.982 c 1.75,-4.226 3.474,-8.5419 5.177,-12.9439 0.182,-0.4781 0.352,-0.907 0.511,-1.2953 l 2.299,5.584 c 1.19,2.8162 2.392,5.8142 3.606,8.9932 l 2.367,6.404 c 0.046,0.133 0.17,0.592 0.377,1.362 2.221,6.017 3.331,9.819 3.331,11.411 0,0.34 -0.154,0.685 -0.462,1.035 -0.307,0.355 -0.802,0.643 -1.482,0.871 -0.274,0.09 -1.162,0.226 -2.663,0.407 l -2.527,0.342 c -0.203,0.255 -0.305,0.472 -0.305,0.651 l 0.102,0.303 11.057,0.116 h 3.65 c 1.228,0 2.068,-0.083 2.522,-0.242 l 0.037,-0.275 c 0,-0.185 -0.07,-0.426 -0.205,-0.726 -0.544,-0.185 -1.046,-0.3 -1.502,-0.343 -1.906,-0.238 -3.086,-0.519 -3.542,-0.839 -0.454,-0.321 -0.931,-1.005 -1.429,-2.05 l -8.998,-22.137 c -2.804,-6.657 -4.801,-11.8082 -5.988,-15.466 l -0.99,-2.9629 c -0.298,-0.1813 -0.548,-0.2723 -0.752,-0.2723 -0.304,0 -0.631,0.0293 -0.987,0.0883 -2.691,6.9891 -4.887,12.3918 -6.585,16.2049 l -10.386,23.626 c -0.748,1.462 -1.313,2.342 -1.687,2.638 -0.376,0.293 -1.69,0.713 -3.94,1.257 -0.797,0.182 -1.24,0.295 -1.331,0.343 -0.16,0.109 -0.273,0.28 -0.342,0.508"
       style="fill:#413290;fill-opacity:1;fill-rule:nonzero;stroke:none;stroke-width:0.1"
       id="path124" /><path
       inkscape:connector-curvature="0"
       d="m 303.93,104.352 -13.523,-0.186 -2.598,0.053 c -1.055,0 -2.136,-0.043 -3.234,-0.13 -0.203,-0.685 -0.303,-1.151 -0.303,-1.4 l 0.033,-0.341 v -0.343 l -0.033,-1.675 c 0,-1.387 0.436,-3.0902 1.309,-5.103 0.872,-2.0149 2.118,-3.5508 3.741,-4.6122 1.619,-1.0589 3.645,-1.6238 6.071,-1.6898 1.292,0.066 2.322,0.2199 3.094,0.4691 0.771,0.2411 1.86,0.809 3.264,1.702 l 2.45,1.973 0.204,-1.3371 c 0,-0.1558 -0.011,-0.3218 -0.033,-0.5 -1.023,-1.2902 -2.318,-2.4199 -3.883,-3.3922 -1.567,-0.9738 -3.154,-1.6828 -4.765,-2.1367 -0.774,-0.2023 -2.045,-0.3043 -3.815,-0.3043 -1.612,0 -3.199,0.3313 -4.767,0.9922 -2.313,1.002 -4.136,2.616 -5.464,4.8379 -1.326,2.225 -1.99,4.9199 -1.99,8.091 0,1.0021 0.184,2.2891 0.56,3.8651 0.371,1.571 1.046,3.247 2.018,5.027 0.656,1.209 1.459,2.201 2.413,2.977 1.359,1.092 2.546,1.858 3.565,2.292 1.471,0.613 3.179,0.92 5.127,0.92 2.105,0 3.824,-0.387 5.161,-1.163 1.809,-1.023 3.161,-2.344 4.057,-3.963 0.893,-1.618 1.341,-3.098 1.341,-4.443 z m -18.915,1.146 h 1.592 c 1.153,0 4.583,0.177 10.293,0.529 0.904,0.047 1.458,0.138 1.661,0.279 0.406,0.44 0.609,0.835 0.609,1.182 0,0.721 -0.226,1.537 -0.678,2.456 -0.45,0.916 -1.146,1.623 -2.082,2.123 -0.938,0.498 -2.027,0.748 -3.268,0.748 -2.62,0 -4.718,-1.003 -6.298,-3.016 -1.218,-1.525 -1.829,-2.961 -1.829,-4.301"
       style="fill:#413290;fill-opacity:1;fill-rule:nonzero;stroke:none;stroke-width:0.1"
       id="path126" /><path
       inkscape:connector-curvature="0"
       d="m 306.267,86.0148 -0.136,0.4383 c 0,0.1571 0.104,0.3949 0.307,0.7078 l 2.008,0.4141 2.823,0.518 c 0.227,0.1129 0.386,0.275 0.478,0.4781 0.135,0.2988 0.203,1.1867 0.203,2.6508 0,7.8051 -0.046,12.3101 -0.138,13.5171 -0.091,1.2 -0.291,1.966 -0.607,2.286 -0.319,0.321 -1.133,0.573 -2.449,0.76 -0.768,0.115 -1.379,0.262 -1.831,0.446 l 0.136,1.015 c 2.388,0.981 3.991,1.823 4.81,2.532 1.137,1.024 2.104,2.372 2.901,4.035 l 1.123,-0.034 c 0.132,-1.142 0.198,-3.673 0.198,-7.601 l -0.036,-0.583 c 0,-0.138 0.024,-0.355 0.069,-0.65 0.869,1.58 1.954,3.037 3.255,4.366 l 0.787,0.789 c 0.32,0.367 0.629,0.652 0.925,0.859 1.599,0.962 2.786,1.442 3.563,1.442 1.006,0 1.827,-0.334 2.466,-1.01 0.639,-0.675 0.961,-1.5 0.961,-2.488 0,-0.776 -0.229,-1.382 -0.686,-1.815 -0.616,-0.569 -1.321,-0.857 -2.122,-0.857 -0.365,0 -1.084,0.192 -2.156,0.573 -1.072,0.381 -1.781,0.573 -2.121,0.573 -0.64,0 -1.083,-0.103 -1.333,-0.308 -0.64,-0.5 -1.416,-1.531 -2.33,-3.085 -0.707,-1.164 -1.059,-2.239 -1.059,-3.222 l 0.171,-5.6741 0.069,-6.8129 c 0.067,-0.7781 0.155,-1.284 0.272,-1.509 0.09,-0.164 0.318,-0.3601 0.68,-0.5879 2.458,-0.2051 3.915,-0.3551 4.369,-0.4453 0.318,-0.0258 0.557,-0.0488 0.717,-0.0687 0.978,-0.0231 1.661,-0.1602 2.047,-0.4141 0.204,-0.116 0.309,-0.2859 0.309,-0.5141 0,-0.1351 -0.092,-0.3168 -0.274,-0.5441 l -3.783,0.0871 -1.431,0.034 -2.078,-0.034 h -3.476 l -1.876,-0.1309 -5.725,-0.1332"
       style="fill:#413290;fill-opacity:1;fill-rule:nonzero;stroke:none;stroke-width:0.1"
       id="path128" /><path
       inkscape:connector-curvature="0"
       d="m 331.593,110.612 0.033,1.014 c 1.504,0.432 2.315,0.682 2.43,0.748 0.832,0.364 1.703,0.921 2.617,1.673 0.914,0.752 1.683,1.594 2.305,2.527 0.278,0.043 0.499,0.067 0.663,0.067 l 0.416,-0.033 c 0.091,-1.093 0.137,-1.888 0.137,-2.387 0,-0.116 -0.025,-0.624 -0.069,-1.532 v -1.807 l 0.033,-9.816 -0.101,-10.3941 c -0.023,-0.8418 0.112,-1.4278 0.408,-1.7559 0.295,-0.3308 1.175,-0.698 2.636,-1.1058 0.91,-0.2512 1.598,-0.4672 2.052,-0.6493 0.069,-0.1519 0.104,-0.282 0.104,-0.391 0,-0.132 -0.058,-0.2949 -0.173,-0.491 -0.899,0.0141 -2.053,0.05 -3.458,0.1121 -1.913,0.1 -3.179,0.1539 -3.802,0.1539 -0.3,0 -2.143,-0.0429 -5.529,-0.1328 -0.691,-0.016 -1.361,-0.059 -2.004,-0.1332 -0.117,0 -0.302,0.0402 -0.555,0.1172 -0.114,0.175 -0.171,0.3309 -0.171,0.457 0,0.352 0.215,0.634 0.65,0.8379 0.092,0.043 1.256,0.3031 3.498,0.777 0.731,0.1371 1.211,0.3621 1.44,0.6769 0.388,0.4731 0.583,1.2321 0.583,2.2699 0.045,1.736 0.069,6.4993 0.069,14.2882 0,1.557 -0.069,2.528 -0.207,2.911 -0.112,0.271 -0.412,0.582 -0.897,0.932 -0.489,0.351 -1.524,0.705 -3.108,1.066 z m 2.908,17.698 c 0,0.745 0.288,1.394 0.861,1.939 0.576,0.542 1.266,0.816 2.08,0.816 0.831,0 1.564,-0.309 2.195,-0.92 0.632,-0.613 0.948,-1.272 0.948,-1.974 0,-0.702 -0.316,-1.365 -0.948,-1.987 -0.631,-0.626 -1.364,-0.938 -2.195,-0.938 -0.835,0 -1.532,0.281 -2.097,0.848 -0.561,0.568 -0.844,1.307 -0.844,2.216"
       style="fill:#413290;fill-opacity:1;fill-rule:nonzero;stroke:none;stroke-width:0.1"
       id="path130" /><path
       inkscape:connector-curvature="0"
       d="m 347.366,128.595 v 0.795 c 0.632,0.2 1.338,0.412 2.109,0.639 1.147,0.358 2.841,0.908 5.088,1.653 h 1.618 c 0,-1.093 0,-1.719 0,-1.88 0,-18.716 -0.057,-29.8719 -0.177,-33.4731 0,-2.1199 0,-3.2488 0,-3.382 0,-2.5559 0.103,-3.9778 0.303,-4.2758 0.269,-0.4102 1.088,-0.693 2.463,-0.8543 1.374,-0.1598 2.186,-0.318 2.433,-0.4789 0.178,-0.091 0.268,-0.2469 0.268,-0.4738 0,-0.2473 -0.053,-0.4192 -0.156,-0.5211 -0.101,-0.102 -0.291,-0.1512 -0.565,-0.1512 -0.159,0 -1.359,0.0383 -3.6,0.1141 l -4.493,0.1511 -5.76,-0.2652 c -0.366,-0.0219 -0.643,0.0492 -0.823,0.2172 -0.14,0.1191 -0.207,0.289 -0.207,0.5051 0,0.2429 0.074,0.4187 0.223,0.525 0.148,0.1089 0.974,0.289 2.48,0.539 1.503,0.25 2.363,0.4598 2.58,0.6309 0.219,0.1691 0.364,0.5488 0.432,1.1418 0.091,0.8183 0.139,3.123 0.139,6.923 l -0.036,7.8442 0.104,8.116 -0.035,8.115 0.105,3.993 c 0,0.795 -0.128,1.368 -0.378,1.721 -0.25,0.354 -0.783,0.701 -1.599,1.042 -1.225,0.499 -2.063,0.861 -2.516,1.09"
       style="fill:#413290;fill-opacity:1;fill-rule:nonzero;stroke:none;stroke-width:0.1"
       id="path132" /><path
       inkscape:connector-curvature="0"
       d="m 361.307,99.9988 c 0,1.5442 0.323,3.1942 0.971,4.9542 0.647,1.757 1.631,3.334 2.947,4.729 1.317,1.395 2.713,2.434 4.191,3.115 2.065,0.952 4.587,1.429 7.562,1.429 4.244,0 7.794,-1.454 10.646,-4.359 2.848,-2.902 4.274,-6.396 4.274,-10.4779 0,-3.6332 -1.492,-6.8723 -4.48,-9.7211 -2.986,-2.8489 -6.762,-4.2692 -11.328,-4.2692 -2.815,0 -5.473,0.7383 -7.969,2.2121 -1.862,1.1102 -3.467,2.7582 -4.805,4.934 -1.338,2.1801 -2.009,4.6641 -2.009,7.4539 z m 15.076,-13.2789 c 1.719,0 3.377,0.4641 4.975,1.3942 1.599,0.9308 2.87,2.425 3.824,4.4808 0.951,2.0551 1.426,4.4301 1.426,7.1332 0,1.7699 -0.369,3.8219 -1.105,6.1609 -0.735,2.337 -1.868,4.093 -3.396,5.263 -1.528,1.167 -3.324,1.752 -5.386,1.752 -1.496,0 -3.019,-0.352 -4.569,-1.058 -1.552,-0.702 -2.865,-2.052 -3.944,-4.049 -1.073,-1.998 -1.611,-4.836 -1.611,-8.513 0,-4.1332 0.934,-7.257 2.802,-9.3781 1.868,-2.1239 4.195,-3.186 6.984,-3.186"
       style="fill:#413290;fill-opacity:1;fill-rule:nonzero;stroke:none;stroke-width:0.1"
       id="path134" /><path
       inkscape:connector-curvature="0"
       d="m 402.419,83.9441 c -0.273,0.1379 -1.152,0.5168 -2.632,1.1399 -1.737,1.1289 -2.831,1.968 -3.288,2.5238 -0.457,0.5512 -0.682,1.1633 -0.682,1.8293 0,0.5988 0.167,1.0789 0.508,1.45 0.499,0.5277 1.486,1.0348 2.96,1.5199 1.473,0.484 2.687,0.9559 3.641,1.416 -0.298,0.204 -0.763,0.502 -1.399,0.8872 -3.397,2.0828 -5.094,4.975 -5.094,8.6678 0,3.037 1.074,5.605 3.226,7.701 2.151,2.097 4.916,3.147 8.288,3.147 1.523,0 2.925,-0.215 4.199,-0.639 0.73,-0.226 1.811,-0.789 3.246,-1.686 0.909,-0.562 1.446,-0.874 1.607,-0.945 0.363,-0.112 0.777,-0.168 1.234,-0.168 0.388,0 1.33,0.103 2.829,0.308 1.498,0.205 2.383,0.309 2.659,0.309 0.526,0 0.961,-0.099 1.302,-0.302 0.276,-0.448 0.414,-1.193 0.414,-2.244 0,-0.355 -0.1,-0.622 -0.291,-0.8 -0.197,-0.18 -0.476,-0.269 -0.842,-0.269 -0.64,0 -1.699,0.177 -3.173,0.53 -1.474,0.353 -2.372,0.529 -2.691,0.529 -0.114,0 -0.331,-0.022 -0.651,-0.069 0.984,-1.959 1.477,-3.744 1.477,-5.364 0,-1.615 -0.515,-3.289 -1.54,-5.0191 -1.028,-1.7301 -2.441,-3.0528 -4.243,-3.9617 -1.802,-0.9114 -3.625,-1.3661 -5.471,-1.3661 -0.138,0 -0.522,0.011 -1.162,0.0379 -2.078,0 -3.986,-0.5289 -5.725,-1.5761 -0.838,-0.5278 -1.254,-1.018 -1.254,-1.4731 0,-0.4789 0.407,-0.9488 1.229,-1.4039 2.164,-1.1668 6.267,-1.8391 12.309,-2.0211 2.62,-0.0918 4.658,-0.4629 6.119,-1.1219 1.458,-0.6519 2.556,-1.623 3.298,-2.9019 0.74,-1.2762 1.112,-2.5988 1.112,-3.9551 0,-1.8348 -0.627,-3.532 -1.885,-5.0949 -1.253,-1.561 -3.159,-2.827 -5.714,-3.8031 -2.554,-0.9719 -5.489,-1.461 -8.798,-1.461 -3.651,0 -6.469,0.4422 -8.452,1.3231 -1.987,0.882 -3.397,1.841 -4.23,2.875 -0.831,1.0422 -1.247,2.0679 -1.247,3.0879 0,0.8812 0.454,1.9812 1.37,3.2992 0.914,1.323 2.812,2.7058 5.69,4.15 0.847,0.4289 1.428,0.7359 1.747,0.914 z M 399.908,71.977 c 2.076,-1.57 4.7,-2.359 7.873,-2.359 2.259,0 4.512,0.3539 6.761,1.059 2.247,0.7109 3.889,1.7191 4.928,3.0289 1.038,1.3121 1.559,2.5519 1.559,3.7203 0,0.7168 -0.185,1.4297 -0.549,2.1347 -0.366,0.709 -0.861,1.2922 -1.49,1.7512 -0.628,0.4617 -1.457,0.8238 -2.485,1.0918 -0.73,0.2031 -1.768,0.35 -3.115,0.4379 -3.839,0.298 -6.19,0.4461 -7.058,0.4461 -2.442,0 -4.618,-0.8039 -6.533,-2.4238 -1.481,-1.2551 -2.22,-2.7602 -2.22,-4.5133 0,-1.6137 0.775,-3.0738 2.329,-4.3738 z m 1.109,31.518 c 0,-2.025 0.307,-3.7161 0.921,-5.0759 0.614,-1.3613 1.454,-2.3691 2.522,-3.0339 1.07,-0.6641 2.15,-0.9934 3.243,-0.9934 1.979,0 3.621,0.7453 4.928,2.2422 1.307,1.4918 1.961,3.767 1.961,6.827 0,3.078 -0.681,5.424 -2.045,7.028 -1.366,1.611 -3.014,2.415 -4.949,2.415 -2.159,0 -3.796,-0.765 -4.912,-2.292 -1.112,-1.532 -1.669,-3.902 -1.669,-7.117"
       style="fill:#413290;fill-opacity:1;fill-rule:nonzero;stroke:none;stroke-width:0.1"
       id="path136" /></g></svg>